<svg width="24" height="25" viewBox="0 0 24 25" fill="none" xmlns="http://www.w3.org/2000/svg">
<path d="M2.57956 9.12505C2.50886 8.53528 2.47351 8.24039 2.52323 7.999C2.6651 7.31015 3.27111 6.75159 4.07871 6.56529C4.36172 6.5 4.717 6.5 5.42757 6.5H18.5724C19.283 6.5 19.6383 6.5 19.9213 6.56529C20.7289 6.75159 21.3349 7.31015 21.4768 7.999C21.5265 8.24039 21.4911 8.53528 21.4204 9.12505C21.2584 10.4767 20.4991 11.216 19.0512 11.6423L14.88 12.8703C13.4541 13.2901 12.7411 13.5 12 13.5C11.2589 13.5 10.5459 13.2901 9.11996 12.8703L4.94882 11.6423C3.50094 11.2161 2.7416 10.4767 2.57956 9.12505Z" stroke="#909293" stroke-width="1.5"/>
<path d="M3.46283 11L3.26658 13.2757C2.91481 17.355 2.73892 19.3947 3.86734 20.6974C4.99576 22 6.93851 22 10.824 22H13.176C17.0615 22 19.0042 22 20.1327 20.6974C21.2611 19.3947 21.0852 17.355 20.7334 13.2757L20.5372 11" stroke="#909293" stroke-width="1.5" stroke-linecap="round" stroke-linejoin="round"/>
<path d="M15.5 6L15.4227 5.73509C15.0377 4.41505 14.8452 3.75503 14.3869 3.37752C13.9286 3 13.3199 3 12.1023 3H11.8977C10.6801 3 10.0714 3 9.61309 3.37752C9.15478 3.75503 8.96228 4.41505 8.57727 5.73509L8.5 6" stroke="#909293" stroke-width="1.5"/>
</svg>
