<svg width="24" height="25" viewBox="0 0 24 25" fill="none" xmlns="http://www.w3.org/2000/svg">
<path d="M11.5704 21.5H10.507C6.49678 21.5 4.49165 21.5 3.24583 19.9542C2 18.4083 2 15.9204 2 10.9444V7.71895C2 5.80157 2 4.84287 2.32354 4.12351C2.55416 3.61072 2.89517 3.18761 3.30843 2.90145C3.88819 2.5 4.66083 2.5 6.20611 2.5C7.19611 2.5 7.69111 2.5 8.12443 2.70162C9.11377 3.16196 9.52173 4.27711 9.96816 5.38497L10.507 6.72222M7.00413 6.72222H15.5487C17.3409 6.72222 18.2369 6.72222 18.8806 7.2559C19.1593 7.48694 19.3986 7.78381 19.5848 8.12958C19.8747 8.66804 19.9692 9.34883 20 10.4167" stroke="#909293" stroke-width="1.5" stroke-linecap="round"/>
<path d="M4.5956 13.0755C5.02693 11.9264 5.24259 11.3518 5.66347 10.991C6.34287 10.4085 7.31965 10.5062 8.15669 10.5062H17.2524C19.7292 10.5062 20.9676 10.5062 21.5856 11.3031C22.6464 12.6711 21.3949 14.8902 20.8908 16.2332C19.9871 18.641 19.5352 19.8449 18.6352 20.5791C17.2638 21.6979 15.269 21.4835 13.6139 21.4835H9.93724C6.3942 21.4835 4.62269 21.4835 3.70143 20.3866C2.00075 18.3617 3.83072 15.1133 4.5956 13.0755Z" stroke="#909293" stroke-width="1.5" stroke-linecap="round"/>
</svg>
