<svg width="24" height="25" viewBox="0 0 24 25" fill="none" xmlns="http://www.w3.org/2000/svg">
<path d="M10 18.5H14" stroke="#909293" stroke-width="1.5" stroke-linecap="round" stroke-linejoin="round"/>
<path d="M2.35139 13.7135C1.99837 11.4162 1.82186 10.2676 2.25617 9.24938C2.69047 8.23112 3.65403 7.53443 5.58114 6.14106L7.02099 5.1C9.41829 3.36667 10.6169 2.5 12 2.5C13.3831 2.5 14.5817 3.36667 16.979 5.1L18.4189 6.14106C20.346 7.53443 21.3095 8.23112 21.7438 9.24938C22.1781 10.2676 22.0016 11.4162 21.6486 13.7135L21.3476 15.6724C20.8471 18.9289 20.5969 20.5572 19.429 21.5286C18.2611 22.5 16.5537 22.5 13.1388 22.5H10.8612C7.44633 22.5 5.73891 22.5 4.571 21.5286C3.40309 20.5572 3.15287 18.9289 2.65243 15.6724L2.35139 13.7135Z" stroke="#909293" stroke-width="1.5" stroke-linejoin="round"/>
</svg>
