<svg width="24" height="25" viewBox="0 0 24 25" fill="none" xmlns="http://www.w3.org/2000/svg">
<path d="M21.9996 9.37895C21.9327 7.83687 21.7452 6.83298 21.2199 6.03884C20.9177 5.58196 20.5424 5.18459 20.1108 4.86468C18.9443 4 17.2986 4 14.0074 4H9.99263C6.70136 4 5.05573 4 3.88921 4.86468C3.45764 5.18459 3.08226 5.58196 2.78006 6.03884C2.25485 6.83289 2.06735 7.83665 2.00042 9.37843C1.98897 9.64208 2.21607 9.84375 2.4649 9.84375C3.85068 9.84375 4.97408 11.033 4.97408 12.5C4.97408 13.967 3.85068 15.1562 2.4649 15.1562C2.21607 15.1562 1.98897 15.3579 2.00042 15.6216C2.06735 17.1634 2.25485 18.1671 2.78006 18.9612C3.08226 19.418 3.45764 19.8154 3.88921 20.1353C5.05573 21 6.70137 21 9.99265 21H14.0074C17.2986 21 18.9443 21 20.1108 20.1353C20.5424 19.8154 20.9177 19.418 21.2199 18.9612C21.7452 18.167 21.9327 17.1631 21.9996 15.6211V9.37895Z" stroke="#909293" stroke-width="1.5" stroke-linejoin="round"/>
<path d="M13 12.5H17" stroke="#909293" stroke-width="1.5" stroke-linecap="round" stroke-linejoin="round"/>
<path d="M9 16.5H17" stroke="#909293" stroke-width="1.5" stroke-linecap="round" stroke-linejoin="round"/>
</svg>
