<svg width="24" height="25" viewBox="0 0 24 25" fill="none" xmlns="http://www.w3.org/2000/svg">
<path d="M6.57757 15.9816C5.1628 16.824 1.45336 18.5441 3.71266 20.6966C4.81631 21.748 6.04549 22.5 7.59087 22.5H16.4091C17.9545 22.5 19.1837 21.748 20.2873 20.6966C22.5466 18.5441 18.8372 16.824 17.4224 15.9816C14.1048 14.0061 9.89519 14.0061 6.57757 15.9816Z" stroke="#909293" stroke-width="1.5" stroke-linecap="round" stroke-linejoin="round"/>
<path d="M16.5 7C16.5 9.48528 14.4853 11.5 12 11.5C9.51472 11.5 7.5 9.48528 7.5 7C7.5 4.51472 9.51472 2.5 12 2.5C14.4853 2.5 16.5 4.51472 16.5 7Z" stroke="#909293" stroke-width="1.5"/>
</svg>
