<svg width="24" height="25" viewBox="0 0 24 25" fill="none" xmlns="http://www.w3.org/2000/svg">
<path d="M2.52992 15.2696C2.31727 16.6636 3.268 17.6312 4.43205 18.1134C8.89481 19.9622 15.1052 19.9622 19.5679 18.1134C20.732 17.6312 21.6827 16.6636 21.4701 15.2696C21.3394 14.4129 20.6932 13.6995 20.2144 13.0029C19.5873 12.0793 19.525 11.0718 19.5249 10C19.5249 5.85786 16.1559 2.5 12 2.5C7.84413 2.5 4.47513 5.85786 4.47513 10C4.47503 11.0718 4.41272 12.0793 3.78561 13.0029C3.30684 13.6995 2.66061 14.4129 2.52992 15.2696Z" stroke="black" stroke-width="1.5" stroke-linecap="round" stroke-linejoin="round"/>
<path d="M8 19.5C8.45849 21.2252 10.0755 22.5 12 22.5C13.9245 22.5 15.5415 21.2252 16 19.5" stroke="black" stroke-width="1.5" stroke-linecap="round" stroke-linejoin="round"/>
</svg>
